<svg width="12" height="12" viewBox="0 0 12 12" fill="none" xmlns="http://www.w3.org/2000/svg">
<path fill-rule="evenodd" clip-rule="evenodd" d="M5.72727 11.4545C6.47939 11.4545 7.22414 11.3064 7.91901 11.0186C8.61387 10.7308 9.24524 10.3089 9.77707 9.77707C10.3089 9.24524 10.7308 8.61387 11.0186 7.91901C11.3064 7.22414 11.4545 6.47939 11.4545 5.72727C11.4545 4.97516 11.3064 4.23041 11.0186 3.53554C10.7308 2.84068 10.3089 2.20931 9.77707 1.67748C9.24524 1.14565 8.61387 0.723785 7.91901 0.435963C7.22414 0.14814 6.47939 -1.12074e-08 5.72727 0C4.20831 2.26344e-08 2.75155 0.603407 1.67748 1.67748C0.603408 2.75155 0 4.20831 0 5.72727C0 7.24624 0.603408 8.70299 1.67748 9.77707C2.75155 10.8511 4.20831 11.4545 5.72727 11.4545ZM4.95282 3.17545L8.54446 5.17109C8.64361 5.22622 8.72623 5.30685 8.78374 5.40464C8.84126 5.50243 8.87159 5.61382 8.87159 5.72727C8.87159 5.84072 8.84126 5.95211 8.78374 6.0499C8.72623 6.14769 8.64361 6.22833 8.54446 6.28345L4.95282 8.27909C4.83652 8.34373 4.70536 8.37687 4.57231 8.37521C4.43927 8.37356 4.30897 8.33717 4.19432 8.26965C4.07967 8.20213 3.98465 8.10583 3.91867 7.99029C3.8527 7.87474 3.81806 7.74396 3.81818 7.61091V3.84364C3.81806 3.71058 3.8527 3.57981 3.91867 3.46426C3.98465 3.34872 4.07967 3.25241 4.19432 3.1849C4.30897 3.11738 4.43927 3.08099 4.57231 3.07933C4.70536 3.07768 4.83652 3.11081 4.95282 3.17545Z" fill="#091520"/>
</svg>
