<svg width="24" height="24" viewBox="0 0 24 24" fill="none" xmlns="http://www.w3.org/2000/svg">
<path d="M9.6 6.11205C9.922 5.29605 11.078 5.29605 11.4 6.11205L12.31 8.42205C12.6017 9.16167 13.0423 9.83343 13.6044 10.3956C14.1666 10.9578 14.8384 11.3984 15.578 11.69L17.888 12.6C18.704 12.922 18.704 14.078 17.888 14.4L15.578 15.31C14.8384 15.6017 14.1666 16.0423 13.6044 16.6045C13.0423 17.1667 12.6017 17.8384 12.31 18.578L11.4 20.888C11.078 21.704 9.922 21.704 9.6 20.888L8.69 18.578C8.39835 17.8384 7.95775 17.1667 7.39557 16.6045C6.83338 16.0423 6.16162 15.6017 5.422 15.31L3.112 14.4C2.296 14.078 2.296 12.922 3.112 12.6L5.422 11.69C6.16162 11.3984 6.83338 10.9578 7.39557 10.3956C7.95775 9.83343 8.39835 9.16167 8.69 8.42205L9.6 6.11205ZM18.163 2.73005C18.19 2.66271 18.2365 2.60499 18.2965 2.56434C18.3566 2.52368 18.4275 2.50195 18.5 2.50195C18.5725 2.50195 18.6434 2.52368 18.7035 2.56434C18.7635 2.60499 18.81 2.66271 18.837 2.73005L19.179 3.59605C19.4 4.15605 19.844 4.60005 20.404 4.82105L21.27 5.16305C21.3373 5.19 21.3951 5.23651 21.4357 5.29658C21.4764 5.35665 21.4981 5.42751 21.4981 5.50005C21.4981 5.57258 21.4764 5.64345 21.4357 5.70351C21.3951 5.76358 21.3373 5.81009 21.27 5.83705L20.404 6.17905C20.1269 6.28868 19.8753 6.45394 19.6646 6.66464C19.4539 6.87533 19.2886 7.12698 19.179 7.40405L18.837 8.27005C18.81 8.33738 18.7635 8.3951 18.7035 8.43575C18.6434 8.47641 18.5725 8.49814 18.5 8.49814C18.4275 8.49814 18.3566 8.47641 18.2965 8.43575C18.2365 8.3951 18.19 8.33738 18.163 8.27005L17.821 7.40405C17.7114 7.12698 17.5461 6.87533 17.3354 6.66464C17.1247 6.45394 16.8731 6.28868 16.596 6.17905L15.729 5.83705C15.6617 5.81009 15.6039 5.76358 15.5633 5.70351C15.5226 5.64345 15.5009 5.57258 15.5009 5.50005C15.5009 5.42751 15.5226 5.35665 15.5633 5.29658C15.6039 5.23651 15.6617 5.19 15.729 5.16305L16.596 4.82105C16.8731 4.71142 17.1247 4.54615 17.3354 4.33546C17.5461 4.12476 17.7114 3.87311 17.821 3.59605L18.163 2.73005Z" stroke="#1E90FF" stroke-width="1.5"/>
</svg>
