<svg width="24" height="24" viewBox="0 0 24 24" fill="none" xmlns="http://www.w3.org/2000/svg">
<path d="M11.122 5.102C10.974 4.69922 10.6776 4.36832 10.2934 4.17716C9.90925 3.98601 9.46651 3.9491 9.05599 4.074C7.10999 4.674 5.74999 6.344 6.04199 8.276C6.37059 10.4198 7.09707 12.4832 8.18399 14.36C9.26091 16.2318 10.6731 17.8894 12.35 19.25C13.858 20.47 15.974 20.134 17.466 18.734C17.7798 18.4394 17.9703 18.0368 17.9988 17.6073C18.0274 17.1779 17.892 16.7536 17.62 16.42L16.552 15.114C16.3381 14.8514 16.0502 14.6591 15.7257 14.5621C15.4011 14.4651 15.0549 14.4679 14.732 14.57L12.268 15.35L11.838 14.906C11.2964 14.3439 10.8225 13.7203 10.426 13.048C10.042 12.3676 9.74241 11.643 9.53399 10.89L9.36799 10.3L11.268 8.55C11.5194 8.31767 11.6957 8.01561 11.7745 7.68248C11.8532 7.34935 11.8308 7.0003 11.71 6.68L11.122 5.102ZM8.46799 2.162C9.3663 1.88716 10.3357 1.96626 11.1776 2.3831C12.0194 2.79995 12.67 3.52296 12.996 4.404L13.582 5.98C13.8413 6.67228 13.8885 7.42613 13.7175 8.14534C13.5465 8.86454 13.1651 9.5165 12.622 10.018L11.642 10.92C11.768 11.268 11.938 11.666 12.158 12.052C12.378 12.432 12.634 12.778 12.868 13.06L14.128 12.66C14.8324 12.4376 15.5874 12.4317 16.2952 12.6432C17.003 12.8546 17.631 13.2737 18.098 13.846L19.166 15.152C19.7595 15.8778 20.0554 16.8019 19.9938 17.7375C19.9321 18.673 19.5176 19.5503 18.834 20.192C16.846 22.058 13.6 22.832 11.094 20.804C9.22648 19.2893 7.65363 17.4439 6.45399 15.36C5.24119 13.2668 4.43059 10.9652 4.06399 8.574C3.58399 5.388 5.86999 2.962 8.46799 2.164" fill="#1E90FF"/>
</svg>
