<svg width="24" height="24" viewBox="0 0 24 24" fill="none" xmlns="http://www.w3.org/2000/svg">
<path d="M4 5.25C4 4.56 4.56 4 5.25 4H8C8.14264 4 8.28363 3.96949 8.41351 3.91051C8.54339 3.85153 8.65914 3.76544 8.75301 3.65803C8.84687 3.55063 8.91667 3.42438 8.95772 3.28777C8.99877 3.15116 9.01011 3.00736 8.991 2.866C9.00775 2.759 9.00113 2.64964 8.97159 2.54544C8.94205 2.44125 8.8903 2.34468 8.81989 2.26239C8.74947 2.1801 8.66207 2.11404 8.5637 2.06874C8.46532 2.02345 8.3583 2 8.25 2H5.25C4.38805 2 3.5614 2.34241 2.9519 2.9519C2.34241 3.5614 2 4.38805 2 5.25V8.25C2 8.3583 2.02345 8.46532 2.06874 8.5637C2.11404 8.66207 2.1801 8.74947 2.26239 8.81989C2.34468 8.8903 2.44125 8.94205 2.54544 8.97159C2.64964 9.00113 2.759 9.00775 2.866 8.991C2.91 8.997 2.95467 9 3 9C3.26522 9 3.51957 8.89464 3.70711 8.70711C3.89464 8.51957 4 8.26522 4 8V5.25ZM4 18.75C4 19.44 4.56 20 5.25 20H8C8.14264 20 8.28363 20.0305 8.41351 20.0895C8.54339 20.1485 8.65914 20.2346 8.75301 20.342C8.84687 20.4494 8.91667 20.5756 8.95772 20.7122C8.99877 20.8488 9.01011 20.9926 8.991 21.134C9.00775 21.241 9.00113 21.3504 8.97159 21.4546C8.94205 21.5588 8.8903 21.6553 8.81989 21.7376C8.74947 21.8199 8.66207 21.886 8.5637 21.9313C8.46532 21.9766 8.3583 22 8.25 22H5.25C4.8232 22 4.40059 21.9159 4.00628 21.7526C3.61197 21.5893 3.25369 21.3499 2.9519 21.0481C2.65011 20.7463 2.41072 20.388 2.24739 19.9937C2.08406 19.5994 2 19.1768 2 18.75V15.75C2 15.6417 2.02345 15.5347 2.06874 15.4363C2.11404 15.3379 2.1801 15.2505 2.26239 15.1801C2.34468 15.1097 2.44125 15.0579 2.54544 15.0284C2.64964 14.9989 2.759 14.9922 2.866 15.009C2.91 15.003 2.95467 15 3 15C3.26522 15 3.51957 15.1054 3.70711 15.2929C3.89464 15.4804 4 15.7348 4 16V18.75ZM18.75 4C19.44 4 20 4.56 20 5.25V8C20 8.14264 20.0305 8.28363 20.0895 8.41351C20.1485 8.54339 20.2346 8.65914 20.342 8.75301C20.4494 8.84687 20.5756 8.91667 20.7122 8.95772C20.8488 8.99877 20.9926 9.01011 21.134 8.991C21.241 9.00775 21.3504 9.00113 21.4546 8.97159C21.5588 8.94205 21.6553 8.8903 21.7376 8.81989C21.8199 8.74947 21.886 8.66207 21.9313 8.5637C21.9766 8.46532 22 8.3583 22 8.25V5.25C22 4.8232 21.9159 4.40059 21.7526 4.00628C21.5893 3.61197 21.3499 3.25369 21.0481 2.9519C20.7463 2.65011 20.388 2.41072 19.9937 2.24739C19.5994 2.08406 19.1768 2 18.75 2H15.75C15.6417 2 15.5347 2.02345 15.4363 2.06874C15.3379 2.11404 15.2505 2.1801 15.1801 2.26239C15.1097 2.34468 15.0579 2.44125 15.0284 2.54544C14.9989 2.64964 14.9922 2.759 15.009 2.866C14.9899 3.00736 15.0012 3.15116 15.0423 3.28777C15.0833 3.42438 15.1531 3.55063 15.247 3.65803C15.3409 3.76544 15.4566 3.85153 15.5865 3.91051C15.7164 3.96949 15.8574 4 16 4H18.75ZM20 18.75C20 19.44 19.44 20 18.75 20H16C15.8574 20 15.7164 20.0305 15.5865 20.0895C15.4566 20.1485 15.3409 20.2346 15.247 20.342C15.1531 20.4494 15.0833 20.5756 15.0423 20.7122C15.0012 20.8488 14.9899 20.9926 15.009 21.134C14.9922 21.241 14.9989 21.3504 15.0284 21.4546C15.0579 21.5588 15.1097 21.6553 15.1801 21.7376C15.2505 21.8199 15.3379 21.886 15.4363 21.9313C15.5347 21.9766 15.6417 22 15.75 22H18.75C19.1768 22 19.5994 21.9159 19.9937 21.7526C20.388 21.5893 20.7463 21.3499 21.0481 21.0481C21.3499 20.7463 21.5893 20.388 21.7526 19.9937C21.9159 19.5994 22 19.1768 22 18.75V15.75C22 15.6417 21.9766 15.5347 21.9313 15.4363C21.886 15.3379 21.8199 15.2505 21.7376 15.1801C21.6553 15.1097 21.5588 15.0579 21.4546 15.0284C21.3504 14.9989 21.241 14.9922 21.134 15.009C20.9926 14.9899 20.8488 15.0012 20.7122 15.0423C20.5756 15.0833 20.4494 15.1531 20.342 15.247C20.2346 15.3409 20.1485 15.4566 20.0895 15.5865C20.0305 15.7164 20 15.8574 20 16V18.75ZM7 8C7 7.73478 7.10536 7.48043 7.29289 7.29289C7.48043 7.10536 7.73478 7 8 7H16C16.2652 7 16.5196 7.10536 16.7071 7.29289C16.8946 7.48043 17 7.73478 17 8C17 8.26522 16.8946 8.51957 16.7071 8.70711C16.5196 8.89464 16.2652 9 16 9H8C7.73478 9 7.48043 8.89464 7.29289 8.70711C7.10536 8.51957 7 8.26522 7 8ZM8 11C7.73478 11 7.48043 11.1054 7.29289 11.2929C7.10536 11.4804 7 11.7348 7 12C7 12.2652 7.10536 12.5196 7.29289 12.7071C7.48043 12.8946 7.73478 13 8 13H16C16.2652 13 16.5196 12.8946 16.7071 12.7071C16.8946 12.5196 17 12.2652 17 12C17 11.7348 16.8946 11.4804 16.7071 11.2929C16.5196 11.1054 16.2652 11 16 11H8ZM7 16C7 15.7348 7.10536 15.4804 7.29289 15.2929C7.48043 15.1054 7.73478 15 8 15H12C12.2652 15 12.5196 15.1054 12.7071 15.2929C12.8946 15.4804 13 15.7348 13 16C13 16.2652 12.8946 16.5196 12.7071 16.7071C12.5196 16.8946 12.2652 17 12 17H8C7.73478 17 7.48043 16.8946 7.29289 16.7071C7.10536 16.5196 7 16.2652 7 16Z" fill="black"/>
</svg>
