<svg width="24" height="24" viewBox="0 0 24 24" fill="none" xmlns="http://www.w3.org/2000/svg">
<g clip-path="url(#clip0_25_248)">
<path d="M16.127 7.06835C15.9873 6.73121 15.9155 6.36986 15.9155 6.00493C15.9155 5.26793 16.2082 4.56112 16.7294 4.03998C17.2505 3.51885 17.9573 3.22607 18.6943 3.22607C19.4313 3.22607 20.1381 3.51885 20.6593 4.03998C21.1804 4.56112 21.4732 5.26793 21.4732 6.00493C21.4732 6.36986 21.4013 6.73121 21.2617 7.06835C21.122 7.4055 20.9173 7.71184 20.6593 7.96988C20.4012 8.22792 20.0949 8.43261 19.7577 8.57226C19.4206 8.71191 19.0592 8.78379 18.6943 8.78379C18.3294 8.78379 17.968 8.71191 17.6309 8.57226C17.2938 8.43261 16.9874 8.22792 16.7294 7.96988C16.4713 7.71184 16.2666 7.4055 16.127 7.06835Z" stroke="#1E90FF" stroke-width="2" stroke-linecap="round" stroke-linejoin="round"/>
<path d="M14.5252 14.3433V12.9547C14.5252 11.8488 14.9645 10.7881 15.7466 10.0061C16.5286 9.22408 17.5892 8.78474 18.6952 8.78474C19.8011 8.78474 20.8618 9.22408 21.6438 10.0061C22.4258 10.7881 22.8652 11.8488 22.8652 12.9547V14.3433M11.3143 14.3467H22.8652M6.17833 9.62045C6.95693 9.62045 7.70364 9.31115 8.25419 8.7606C8.80475 8.21005 9.11404 7.46334 9.11404 6.68474C9.11404 5.90614 8.80475 5.15943 8.25419 4.60887C7.70364 4.05832 6.95693 3.74902 6.17833 3.74902C5.39973 3.74902 4.65302 4.05832 4.10247 4.60887C3.55191 5.15943 3.24261 5.90614 3.24261 6.68474C3.24261 7.46334 3.55191 8.21005 4.10247 8.7606C4.65302 9.31115 5.39973 9.62045 6.17833 9.62045Z" stroke="#1E90FF" stroke-width="2" stroke-linecap="round" stroke-linejoin="round"/>
<path d="M11.3143 14.758C11.3143 13.3956 10.7731 12.089 9.80975 11.1256C8.8464 10.1623 7.53982 9.62109 6.17745 9.62109C4.81507 9.62109 3.50849 10.1623 2.54514 11.1256C1.58179 12.089 1.04059 13.3956 1.04059 14.758V16.9591H3.24345L3.97716 22.8288H8.37945L9.11316 16.9591H11.3143V14.758Z" stroke="#1E90FF" stroke-width="2" stroke-linecap="round" stroke-linejoin="round"/>
</g>
<defs>
<clipPath id="clip0_25_248">
<rect width="24" height="24" fill="white"/>
</clipPath>
</defs>
</svg>
