<svg width="24" height="24" viewBox="0 0 24 24" fill="none" xmlns="http://www.w3.org/2000/svg">
<path fill-rule="evenodd" clip-rule="evenodd" d="M8.5 4C8.5 3.73478 8.39464 3.48043 8.20711 3.29289C8.01957 3.10536 7.76522 3 7.5 3H4.5C4.23478 3 3.98043 3.10536 3.79289 3.29289C3.60536 3.48043 3.5 3.73478 3.5 4V20C3.5 20.2652 3.60536 20.5196 3.79289 20.7071C3.98043 20.8946 4.23478 21 4.5 21H7.5C7.76522 21 8.01957 20.8946 8.20711 20.7071C8.39464 20.5196 8.5 20.2652 8.5 20V4ZM5.5 5V19H6.5V5H5.5Z" fill="white"/>
<path d="M9.5 10.6548V19.9998C9.5 20.265 9.60536 20.5194 9.79289 20.7069C9.98043 20.8944 10.2348 20.9998 10.5 20.9998H13.5C13.7652 20.9998 14.0196 20.8944 14.2071 20.7069C14.3946 20.5194 14.5 20.265 14.5 19.9998V13.2488H14.375C13.7376 13.2491 13.1044 13.1461 12.5 12.9438V18.9998H11.5V12.4998C10.6987 12.049 10.0138 11.4172 9.5 10.6548Z" fill="white"/>
<path fill-rule="evenodd" clip-rule="evenodd" d="M14.375 11.75C14.417 11.75 14.4586 11.7493 14.5 11.748C15.2718 11.7273 16.0242 11.5016 16.68 11.094L19.293 13.707L20.707 12.293L18.094 9.68001C18.6044 8.8565 18.8271 7.88683 18.727 6.92313C18.627 5.95942 18.2098 5.0562 17.541 4.35514C16.8723 3.65409 15.9897 3.19487 15.0318 3.04952C14.0738 2.90417 13.0948 3.08091 12.2481 3.55202C11.4015 4.02314 10.7352 4.76196 10.3537 5.65261C9.9723 6.54325 9.8973 7.53532 10.1405 8.47318C10.3837 9.41105 10.9313 10.2417 11.6975 10.8347C12.4637 11.4277 13.4051 11.7497 14.374 11.75M14.374 9.75001C14.0495 9.75016 13.7284 9.68367 13.4306 9.55466C13.1329 9.42565 12.8648 9.23686 12.643 9.00001C12.2692 8.60166 12.0442 8.08666 12.0059 7.54178C11.9675 6.99691 12.1182 6.45547 12.4324 6.00869C12.7466 5.5619 13.2053 5.23709 13.731 5.08898C14.2568 4.94087 14.8175 4.97851 15.3188 5.19557C15.82 5.41262 16.2311 5.79581 16.4828 6.28059C16.7345 6.76536 16.8115 7.32207 16.7006 7.85693C16.5898 8.39179 16.298 8.8721 15.8743 9.21692C15.4507 9.56175 14.9212 9.75002 14.375 9.75001M16.5 15C16.2348 15 15.9804 15.1054 15.7929 15.2929C15.6053 15.4804 15.5 15.7348 15.5 16V20C15.5 20.2652 15.6053 20.5196 15.7929 20.7071C15.9804 20.8946 16.2348 21 16.5 21H19.5C19.7652 21 20.0195 20.8946 20.2071 20.7071C20.3946 20.5196 20.5 20.2652 20.5 20V16C20.5 15.7348 20.3946 15.4804 20.2071 15.2929C20.0195 15.1054 19.7652 15 19.5 15H16.5ZM17.5 19V17H18.5V19H17.5Z" fill="white"/>
</svg>
