<svg width="90" height="90" viewBox="0 0 90 90" fill="none" xmlns="http://www.w3.org/2000/svg">
<path fill-rule="evenodd" clip-rule="evenodd" d="M45 78.75C49.4321 78.75 53.8208 77.877 57.9156 76.1809C62.0103 74.4848 65.7309 71.9988 68.8649 68.8649C71.9988 65.7309 74.4848 62.0103 76.1809 57.9156C77.877 53.8208 78.75 49.4321 78.75 45C78.75 40.5679 77.877 36.1792 76.1809 32.0844C74.4848 27.9897 71.9988 24.2691 68.8649 21.1351C65.7309 18.0012 62.0103 15.5152 57.9156 13.8191C53.8208 12.123 49.4321 11.25 45 11.25C36.0489 11.25 27.4645 14.8058 21.1351 21.1351C14.8058 27.4645 11.25 36.0489 11.25 45C11.25 53.9511 14.8058 62.5355 21.1351 68.8649C27.4645 75.1942 36.0489 78.75 45 78.75ZM40.4362 29.9625L61.6013 41.7225C62.1856 42.0474 62.6724 42.5225 63.0113 43.0988C63.3503 43.6751 63.529 44.3314 63.529 45C63.529 45.6686 63.3503 46.3249 63.0113 46.9012C62.6724 47.4775 62.1856 47.9526 61.6013 48.2775L40.4362 60.0375C39.7509 60.4184 38.978 60.6137 38.194 60.6039C37.41 60.5942 36.6421 60.3797 35.9665 59.9819C35.2909 59.584 34.7309 59.0165 34.3422 58.3356C33.9534 57.6547 33.7493 56.8841 33.75 56.1V33.9C33.7493 33.1159 33.9534 32.3453 34.3422 31.6644C34.7309 30.9835 35.2909 30.416 35.9665 30.0181C36.6421 29.6203 37.41 29.4058 38.194 29.3961C38.978 29.3863 39.7509 29.5816 40.4362 29.9625Z" fill="white"/>
</svg>
