<svg width="14" height="14" viewBox="0 0 14 14" fill="none" xmlns="http://www.w3.org/2000/svg">
<path d="M6.73749 9.45949C6.65583 9.43009 6.57999 9.38039 6.50999 9.31039L3.98999 6.79039C3.84999 6.65039 3.78279 6.48706 3.78839 6.30039C3.79399 6.11373 3.86119 5.95039 3.98999 5.81039C4.12999 5.67039 4.29636 5.59759 4.48909 5.59199C4.68183 5.58639 4.84796 5.65336 4.98749 5.79289L6.29999 7.10539V2.10039C6.29999 1.90206 6.36719 1.73593 6.50159 1.60199C6.63599 1.46806 6.80213 1.40086 6.99999 1.40039C7.19786 1.39993 7.36423 1.46713 7.49909 1.60199C7.63396 1.73686 7.70093 1.90299 7.69999 2.10039V7.10539L9.01249 5.79289C9.15249 5.65289 9.31886 5.58569 9.51159 5.59129C9.70433 5.59689 9.87046 5.66993 10.01 5.81039C10.1383 5.95039 10.2055 6.11373 10.2116 6.30039C10.2177 6.48706 10.1505 6.65039 10.01 6.79039L7.48999 9.31039C7.41999 9.38039 7.34416 9.43009 7.26249 9.45949C7.18083 9.48889 7.09333 9.50336 6.99999 9.50289C6.90666 9.50243 6.81916 9.48796 6.73749 9.45949ZM2.79999 12.6004C2.41499 12.6004 2.08553 12.4634 1.81159 12.1895C1.53766 11.9156 1.40046 11.5859 1.39999 11.2004V9.80039C1.39999 9.60206 1.46719 9.43593 1.60159 9.30199C1.73599 9.16806 1.90213 9.10086 2.09999 9.10039C2.29786 9.09993 2.46423 9.16713 2.59909 9.30199C2.73396 9.43686 2.80093 9.60299 2.79999 9.80039V11.2004H11.2V9.80039C11.2 9.60206 11.2672 9.43593 11.4016 9.30199C11.536 9.16806 11.7021 9.10086 11.9 9.10039C12.0979 9.09993 12.2642 9.16713 12.3991 9.30199C12.534 9.43686 12.6009 9.60299 12.6 9.80039V11.2004C12.6 11.5854 12.463 11.9151 12.1891 12.1895C11.9152 12.4639 11.5855 12.6009 11.2 12.6004H2.79999Z" fill="white"/>
</svg>
