<svg width="24" height="24" viewBox="0 0 24 24" fill="none" xmlns="http://www.w3.org/2000/svg">
<path d="M13.463 20.538C12.4877 19.5627 12 18.3833 12 17C12 15.6167 12.4877 14.4377 13.463 13.463C14.4383 12.4883 15.6173 12.0007 17 12C18.3827 11.9993 19.562 12.487 20.538 13.463C21.514 14.439 22.0013 15.618 22 17C21.9987 18.382 21.511 19.5613 20.537 20.538C19.563 21.5147 18.384 22.002 17 22C15.616 21.998 14.437 21.5113 13.463 20.538ZM18.675 19.375L19.375 18.675L17.5 16.8V14H16.5V17.2L18.675 19.375ZM5 21C4.45 21 3.97933 20.8043 3.588 20.413C3.19667 20.0217 3.00067 19.5507 3 19V5C3 4.45 3.196 3.97933 3.588 3.588C3.98 3.19667 4.45067 3.00067 5 3H9.175C9.35833 2.41667 9.71667 1.93767 10.25 1.563C10.7833 1.18833 11.3667 1.00067 12 1C12.6667 1 13.2627 1.18767 13.788 1.563C14.3133 1.93833 14.6673 2.41733 14.85 3H19C19.55 3 20.021 3.196 20.413 3.588C20.805 3.98 21.0007 4.45067 21 5V11.25C20.7 11.0333 20.3833 10.85 20.05 10.7C19.7167 10.55 19.3667 10.4167 19 10.3V5H17V8H7V5H5V19H10.3C10.4167 19.3667 10.55 19.7167 10.7 20.05C10.85 20.3833 11.0333 20.7 11.25 21H5ZM12.713 4.712C12.9043 4.52067 13 4.28333 13 4C13 3.71667 12.904 3.47933 12.712 3.288C12.52 3.09667 12.2827 3.00067 12 3C11.7173 2.99933 11.48 3.09533 11.288 3.288C11.096 3.48067 11 3.718 11 4C11 4.282 11.096 4.51967 11.288 4.713C11.48 4.90633 11.7173 5.002 12 5C12.2827 4.998 12.5203 4.902 12.713 4.712Z" fill="#1E90FF"/>
</svg>
