<svg width="24" height="24" viewBox="0 0 24 24" fill="none" xmlns="http://www.w3.org/2000/svg">
<g clip-path="url(#clip0_25_268)">
<path d="M6.52802 8.71891C8.46859 6.99434 9.67201 6.41148 12 5.98291C14.328 6.4132 15.5314 6.99434 17.472 8.71891L12 11.4549L6.52802 8.71891Z" stroke="#1E90FF" stroke-width="2" stroke-linecap="round" stroke-linejoin="round"/>
<path d="M12 11.4415V17.8375M6.528 8.71924C5.85429 10.5707 5.84743 12.7787 6.38229 14.6387C6.47229 14.9436 6.65138 15.2146 6.89657 15.417C8.59029 16.8295 9.74915 17.349 11.6383 17.7621C11.8767 17.8136 12.1233 17.8136 12.3617 17.7621C14.2509 17.349 15.4097 16.8295 17.1017 15.417C17.3475 15.2148 17.5273 14.9438 17.6177 14.6387C18.1526 12.7787 18.1457 10.5707 17.472 8.71924L12 11.4552L6.528 8.71924Z" stroke="#1E90FF" stroke-width="2" stroke-linecap="round" stroke-linejoin="round"/>
<path d="M1.28572 12.0002C1.2848 9.61494 2.07983 7.29759 3.54484 5.41529C5.00986 3.53299 7.06109 2.19336 9.37355 1.60865C11.686 1.02394 14.1275 1.22759 16.3111 2.18733C18.4947 3.14707 20.2957 4.80802 21.4286 6.90703C21.5589 5.01788 21.5194 3.93788 21.2571 1.97846M22.7143 12.0002C22.715 14.3804 21.9232 16.6931 20.4636 18.5734C19.0041 20.4536 16.96 21.7943 14.6539 22.3839C12.3479 22.9735 9.91112 22.7784 7.72824 21.8294C5.54536 20.8804 3.74064 19.2315 2.59886 17.143C2.46858 19.0322 2.50629 20.1122 2.77029 22.0716" stroke="#1E90FF" stroke-width="2" stroke-linecap="round" stroke-linejoin="round"/>
</g>
<defs>
<clipPath id="clip0_25_268">
<rect width="24" height="24" fill="white"/>
</clipPath>
</defs>
</svg>
