<svg width="24" height="24" viewBox="0 0 24 24" fill="none" xmlns="http://www.w3.org/2000/svg">
<path d="M12 14.4001C13.3255 14.4001 14.4 13.3256 14.4 12.0001C14.4 10.6746 13.3255 9.6001 12 9.6001C10.6746 9.6001 9.60004 10.6746 9.60004 12.0001C9.60004 13.3256 10.6746 14.4001 12 14.4001Z" fill="#1E90FF" stroke="#1E90FF" stroke-linecap="round" stroke-linejoin="round"/>
<path d="M5.21192 18.7881C3.41165 16.9878 2.40027 14.546 2.40027 12C2.40027 9.454 3.41165 7.01225 5.21192 5.21191M18.7881 18.7881C20.5884 16.9878 21.5998 14.546 21.5998 12C21.5998 9.454 20.5884 7.01225 18.7881 5.21191M7.75742 16.2426C6.63222 15.1174 6.0001 13.5913 6.0001 12C6.0001 10.4087 6.63222 8.88263 7.75742 7.75741M16.2426 16.2426C17.3678 15.1174 17.9999 13.5913 17.9999 12C17.9999 10.4087 17.3678 8.88263 16.2426 7.75741" stroke="#1E90FF" stroke-width="1.5" stroke-linecap="round" stroke-linejoin="round"/>
</svg>
