<svg width="20" height="14" viewBox="0 0 20 14" fill="none" xmlns="http://www.w3.org/2000/svg">
<path d="M10.3415 13.9821L6.27822 13.9062C4.9626 13.8797 3.64371 13.9325 2.35389 13.6584C0.391781 13.2488 0.252778 11.2403 0.107326 9.55558C-0.0930918 7.18707 -0.015504 4.77558 0.362711 2.42685C0.576225 1.10897 1.41649 0.322579 2.71593 0.237005C7.10251 -0.0735568 11.5183 -0.036752 15.8951 0.108136C16.3574 0.121418 16.8228 0.194015 17.2786 0.276648C19.5285 0.679679 19.5834 2.95571 19.7292 4.8717C19.8747 6.80747 19.8133 8.75317 19.5353 10.6757C19.3122 12.2676 18.8855 13.6025 17.0846 13.7314C14.8282 13.8999 12.6236 14.0356 10.3609 13.9924C10.361 13.9821 10.348 13.9821 10.3415 13.9821ZM7.9527 9.95202C9.65308 8.95433 11.321 7.97326 13.0117 6.98226C11.3081 5.98457 9.64335 5.00351 7.9527 4.01251V9.95202Z" fill="#1E90FF"/>
</svg>
