<svg width="21" height="21" viewBox="0 0 21 21" fill="none" xmlns="http://www.w3.org/2000/svg">
<path d="M18.6373 8.82009C18.3914 8.5249 18.0838 8.28729 17.736 8.124C17.3883 7.96072 17.009 7.87575 16.6248 7.87509H12.6348L13.1248 6.62385C13.3286 6.076 13.3965 5.48688 13.3226 4.90704C13.2488 4.32719 13.0353 3.77392 12.7006 3.29469C12.3659 2.81546 11.92 2.42457 11.401 2.15555C10.8821 1.88653 10.3056 1.74741 9.7211 1.75012C9.55279 1.75047 9.38815 1.79936 9.24692 1.89093C9.10569 1.9825 8.99387 2.11285 8.92486 2.26637L6.43112 7.87509H4.37488C3.67869 7.87509 3.01102 8.15165 2.51874 8.64393C2.02646 9.13621 1.7499 9.80389 1.7499 10.5001V16.625C1.7499 17.3212 2.02646 17.9889 2.51874 18.4812C3.01102 18.9735 3.67869 19.25 4.37488 19.25H15.5136C16.1277 19.2498 16.7222 19.0343 17.1938 18.6411C17.6655 18.2478 17.9843 17.7016 18.0948 17.0975L19.2061 10.9726C19.2748 10.594 19.2595 10.205 19.1612 9.83305C19.0629 9.46108 18.8841 9.11527 18.6373 8.82009ZM6.12487 17.5H4.37488C4.14282 17.5 3.92026 17.4079 3.75617 17.2438C3.59207 17.0797 3.49989 16.8571 3.49989 16.625V10.5001C3.49989 10.268 3.59207 10.0455 3.75617 9.88136C3.92026 9.71727 4.14282 9.62508 4.37488 9.62508H6.12487V17.5ZM17.4998 10.6576L16.3886 16.7825C16.3513 16.9864 16.2429 17.1704 16.0827 17.3018C15.9224 17.4332 15.7208 17.5034 15.5136 17.5H7.87486V8.93384L10.2548 3.57886C10.4998 3.65029 10.7274 3.77172 10.923 3.9355C11.1187 4.09928 11.2784 4.30184 11.3918 4.53041C11.5053 4.75899 11.5701 5.0086 11.5823 5.26349C11.5944 5.51839 11.5536 5.77303 11.4623 6.01135L10.9986 7.26259C10.8998 7.52707 10.8664 7.81152 10.9014 8.09168C10.9363 8.37184 11.0385 8.63938 11.1993 8.87148C11.36 9.10358 11.5745 9.29334 11.8245 9.42457C12.0745 9.55579 12.3525 9.62459 12.6348 9.62508H16.6248C16.7534 9.62487 16.8804 9.65299 16.9968 9.70743C17.1133 9.76188 17.2163 9.84131 17.2986 9.94008C17.3829 10.0375 17.4446 10.1523 17.4794 10.2763C17.5142 10.4004 17.5211 10.5305 17.4998 10.6576Z" fill="#091520"/>
</svg>
