<svg width="21" height="21" viewBox="0 0 21 21" fill="none" xmlns="http://www.w3.org/2000/svg">
<path d="M3.49993 19.2499C3.49993 17.3934 4.23743 15.613 5.55017 14.3002C6.86292 12.9875 8.64339 12.25 10.4999 12.25C12.3564 12.25 14.1369 12.9875 15.4496 14.3002C16.7624 15.613 17.4999 17.3934 17.4999 19.2499H15.7499C15.7499 17.8576 15.1967 16.5222 14.2122 15.5377C13.2276 14.5531 11.8923 14 10.4999 14C9.10752 14 7.77216 14.5531 6.7876 15.5377C5.80304 16.5222 5.24992 17.8576 5.24992 19.2499H3.49993ZM10.4999 11.375C7.59929 11.375 5.24992 9.02562 5.24992 6.12501C5.24992 3.2244 7.59929 0.875042 10.4999 0.875042C13.4005 0.875042 15.7499 3.2244 15.7499 6.12501C15.7499 9.02562 13.4005 11.375 10.4999 11.375ZM10.4999 9.625C12.4336 9.625 13.9999 8.05875 13.9999 6.12501C13.9999 4.19127 12.4336 2.62503 10.4999 2.62503C8.56616 2.62503 6.99991 4.19127 6.99991 6.12501C6.99991 8.05875 8.56616 9.625 10.4999 9.625Z" fill="#091520"/>
</svg>
