<svg width="14" height="14" viewBox="0 0 14 14" fill="none" xmlns="http://www.w3.org/2000/svg">
<path fill-rule="evenodd" clip-rule="evenodd" d="M6.99999 12.7273C7.75211 12.7273 8.49686 12.5791 9.19173 12.2913C9.88659 12.0035 10.518 11.5816 11.0498 11.0498C11.5816 10.5179 12.0035 9.88658 12.2913 9.19171C12.5791 8.49685 12.7273 7.75209 12.7273 6.99998C12.7273 6.24786 12.5791 5.50311 12.2913 4.80825C12.0035 4.11338 11.5816 3.48201 11.0498 2.95018C10.518 2.41836 9.88659 1.99649 9.19173 1.70867C8.49686 1.42085 7.75211 1.27271 6.99999 1.27271C5.48103 1.27271 4.02427 1.87611 2.9502 2.95018C1.87613 4.02426 1.27272 5.48101 1.27272 6.99998C1.27272 8.51895 1.87613 9.9757 2.9502 11.0498C4.02427 12.1238 5.48103 12.7273 6.99999 12.7273ZM6.22554 4.44816L9.81718 6.4438C9.91633 6.49893 9.99895 6.57956 10.0565 6.67735C10.114 6.77514 10.1443 6.88653 10.1443 6.99998C10.1443 7.11343 10.114 7.22482 10.0565 7.32261C9.99895 7.4204 9.91633 7.50103 9.81718 7.55616L6.22554 9.5518C6.10924 9.61644 5.97808 9.64957 5.84503 9.64792C5.71199 9.64626 5.58169 9.60987 5.46704 9.54235C5.35239 9.47484 5.25737 9.37854 5.19139 9.26299C5.12542 9.14745 5.09078 9.01667 5.0909 8.88361V5.11634C5.09078 4.98329 5.12542 4.85251 5.19139 4.73697C5.25737 4.62142 5.35239 4.52512 5.46704 4.4576C5.58169 4.39009 5.71199 4.3537 5.84503 4.35204C5.97808 4.35038 6.10924 4.38352 6.22554 4.44816Z" fill="#091520"/>
</svg>
